<svg width="38" height="34" viewBox="0 0 38 34" fill="none" xmlns="http://www.w3.org/2000/svg">
<path d="M32.7558 18.5831H9.75368C9.07158 18.5831 8.50316 18.0147 8.50316 17.3326C8.50316 16.6505 9.07158 16.0821 9.75368 16.0821H32.7558L27.4884 10.8147C26.9958 10.3221 26.9958 9.52629 27.4884 9.03366C27.9811 8.54103 28.7768 8.54103 29.2695 9.03366L36.6211 16.461C36.8484 16.6884 37 17.0294 37 17.3326C37 17.6358 36.8863 17.9768 36.6211 18.2042L29.2316 25.6316C29.0042 25.8589 28.6632 26.0105 28.36 26.0105C28.0568 26.0105 27.7158 25.8968 27.4884 25.6316C26.9958 25.1389 26.9958 24.3431 27.4884 23.8505L32.7558 18.5831Z" fill="#D85B53" stroke="#D85B53" stroke-width="0.5"/>
<path d="M6.00201 1H17.5599C20.3262 1 22.562 3.23579 22.562 6.00211V10.6632C22.562 11.3453 21.9936 11.9137 21.3115 11.9137C20.6294 11.9137 20.061 11.3453 20.061 10.6632V6.00211C20.061 4.63789 18.9241 3.50105 17.5599 3.50105H6.00201C4.6378 3.50105 3.50096 4.63789 3.50096 6.00211V28.6632C3.50096 30.0274 4.6378 31.1642 6.00201 31.1642H17.5599C18.9241 31.1642 20.061 30.0274 20.061 28.6632V24.0021C20.061 23.32 20.6294 22.7516 21.3115 22.7516C21.9936 22.7516 22.562 23.32 22.562 24.0021V28.6632C22.562 31.4295 20.3262 33.6653 17.5599 33.6653H6.00201C3.2357 33.6653 0.999907 31.4295 0.999907 28.6632V6.00211C0.999907 3.23579 3.2357 1 6.00201 1Z" fill="#D85B53" stroke="#D85B53" stroke-width="0.5"/>
</svg>
