<svg width="17" height="18" viewBox="0 0 17 18" fill="none" xmlns="http://www.w3.org/2000/svg">
<path d="M4.25008 14.2495C4.25008 15.0286 4.88758 15.6661 5.66675 15.6661H11.3334C12.1126 15.6661 12.7501 15.0286 12.7501 14.2495V7.16614C12.7501 6.38697 12.1126 5.74947 11.3334 5.74947H5.66675C4.88758 5.74947 4.25008 6.38697 4.25008 7.16614V14.2495ZM12.7501 3.62447H10.9792L10.4763 3.12155C10.3488 2.99405 10.1647 2.91614 9.9805 2.91614H7.01966C6.8355 2.91614 6.65133 2.99405 6.52383 3.12155L6.02091 3.62447H4.25008C3.8605 3.62447 3.54175 3.94322 3.54175 4.3328C3.54175 4.72239 3.8605 5.04114 4.25008 5.04114H12.7501C13.1397 5.04114 13.4584 4.72239 13.4584 4.3328C13.4584 3.94322 13.1397 3.62447 12.7501 3.62447Z" fill="#DA0723"/>
</svg>
