<svg width="202" height="202" viewBox="0 0 202 202" fill="none" xmlns="http://www.w3.org/2000/svg">
<path d="M201 101C201.011 84.3522 196.865 67.9652 188.939 53.3253C181.012 38.6855 169.557 26.2561 155.61 17.1647C141.664 8.07322 125.669 2.60739 109.076 1.26298C92.4822 -0.0814368 75.8157 2.73811 60.5878 9.46585C45.36 16.1936 32.0527 26.6166 21.8731 39.7895C11.6935 52.9624 4.96369 68.4683 2.2941 84.9007C-0.375482 101.333 1.09964 118.172 6.58568 133.89C12.0717 149.608 21.3951 163.707 33.71 174.91C33.9535 175.199 34.237 175.452 34.552 175.661C52.8385 191.981 76.4915 201 101.001 201C125.511 201 149.164 191.979 167.45 175.659C167.764 175.451 168.046 175.199 168.288 174.911C178.596 165.555 186.831 154.146 192.465 141.417C198.098 128.688 201.006 114.92 201 101ZM9 101C8.98948 85.8749 12.7082 70.9804 19.8271 57.6353C26.9459 44.2901 37.2451 32.906 49.8131 24.4907C62.381 16.0753 76.8298 10.8884 91.8805 9.38917C106.931 7.88989 122.119 10.1245 136.1 15.8951C150.081 21.6658 162.424 30.7945 172.036 42.473C181.647 54.1515 188.231 68.0197 191.205 82.8497C194.178 97.6797 193.449 113.014 189.083 127.495C184.717 141.976 176.847 155.158 166.171 165.872C156.242 149.244 140.311 137.06 121.664 131.832C130.33 127.221 137.207 119.845 141.198 110.877C145.19 101.908 146.068 91.8622 143.692 82.3372C141.316 72.8122 135.824 64.3553 128.088 58.3118C120.352 52.2684 110.817 48.9855 101 48.9855C91.1832 48.9855 81.6484 52.2684 73.9124 58.3118C66.1764 64.3553 60.6836 72.8122 58.3079 82.3372C55.9322 91.8622 56.81 101.908 60.8016 110.877C64.7933 119.845 71.6695 127.221 80.3364 131.832C61.6888 137.06 45.7581 149.244 35.8286 165.872C27.3156 157.35 20.5647 147.235 15.9614 136.104C11.3581 124.974 8.99259 113.045 9 101ZM101 129C93.8799 129 86.9196 126.889 80.9995 122.933C75.0793 118.977 70.4651 113.355 67.7403 106.777C65.0156 100.198 64.3027 92.9601 65.6917 85.9768C67.0808 78.9935 70.5095 72.5789 75.5442 67.5442C80.5788 62.5095 86.9934 59.0808 93.9767 57.6917C100.96 56.3027 108.198 57.0156 114.777 59.7404C121.355 62.4651 126.977 67.0793 130.933 72.9995C134.889 78.9197 137 85.8799 137 93C136.989 102.545 133.193 111.695 126.444 118.444C119.695 125.193 110.544 128.989 101 129ZM41.8647 171.417C47.8015 160.967 56.4015 152.276 66.7891 146.231C77.1768 140.185 88.981 137 101 137C113.019 137 124.823 140.185 135.211 146.231C145.598 152.277 154.198 160.967 160.135 171.418C143.583 185.356 122.639 193 101 193C79.3604 193 58.4167 185.356 41.8647 171.417Z" fill="black" stroke="black" stroke-width="0.768"/>
</svg>
