<svg width="14" height="14" viewBox="0 0 14 14" fill="none" xmlns="http://www.w3.org/2000/svg">
<path d="M4.95849 9.67517L2.74591 7.46259C2.63589 7.35633 2.48854 7.29753 2.33559 7.29886C2.18264 7.30019 2.03633 7.36154 1.92818 7.46969C1.82002 7.57785 1.75868 7.72415 1.75735 7.8771C1.75602 8.03005 1.81481 8.1774 1.92107 8.28742L4.54607 10.9124C4.65546 11.0218 4.80381 11.0832 4.95849 11.0832C5.11317 11.0832 5.26151 11.0218 5.37091 10.9124L11.7876 4.49575C11.8938 4.38574 11.9526 4.23838 11.9513 4.08544C11.95 3.93249 11.8886 3.78618 11.7805 3.67803C11.6723 3.56987 11.526 3.50852 11.3731 3.50719C11.2201 3.50586 11.0728 3.56466 10.9627 3.67092L4.95849 9.67517Z" fill="white"/>
</svg>
