<svg width="20" height="19" viewBox="0 0 20 19" fill="none" xmlns="http://www.w3.org/2000/svg">
<path d="M18.75 0.00492551C18.6451 0.020087 18.5482 0.0698381 18.4747 0.146295L0.855655 17.7653C0.809768 17.809 0.773045 17.8613 0.747634 17.9193C0.722224 17.9773 0.708637 18.0398 0.707667 18.1031C0.706697 18.1665 0.718365 18.2293 0.741988 18.2881C0.765611 18.3468 0.800713 18.4003 0.845243 18.4453C0.889772 18.4903 0.942834 18.526 1.00132 18.5503C1.05981 18.5746 1.12255 18.5869 1.18588 18.5867C1.2492 18.5864 1.31184 18.5735 1.37012 18.5487C1.4284 18.524 1.48115 18.4878 1.5253 18.4424L6.09375 13.874C7.32274 14.2985 8.6326 14.5362 10 14.5362C14.1007 14.5362 17.7366 12.4759 20 9.29808C18.6919 7.46151 16.9234 6.00191 14.8735 5.09421L19.1443 0.823378C19.2182 0.75402 19.268 0.662918 19.2865 0.563313C19.305 0.463709 19.2913 0.360792 19.2473 0.269522C19.2034 0.178251 19.1314 0.103383 19.042 0.0557986C18.9526 0.00821405 18.8503 -0.00960701 18.75 0.00492551ZM10 4.05999C5.89934 4.05999 2.26338 6.12032 0 9.29808C1.11664 10.8659 2.5653 12.1598 4.24107 13.0704L7.24702 10.0644C7.17885 9.81984 7.14286 9.56443 7.14286 9.29808C7.14286 7.72012 8.42204 6.44094 10 6.44094C10.2663 6.44094 10.5218 6.47693 10.7664 6.5451L12.8943 4.41713C11.9659 4.18737 10.9964 4.05999 10 4.05999ZM12.3289 7.63885C12.6629 8.10597 12.8571 8.67918 12.8571 9.29808C12.8571 10.876 11.578 12.1552 10 12.1552C9.3811 12.1552 8.80789 11.961 8.34077 11.627L12.3289 7.63885Z" fill="black"/>
</svg>
