<svg width="55" height="55" viewBox="0 0 55 55" fill="none" xmlns="http://www.w3.org/2000/svg">
<path d="M50.9541 10.3025C52.8521 8.4046 52.8537 5.329 50.9577 3.433C49.0617 1.53701 45.9861 1.53859 44.0881 3.43654L3.43655 44.0881C1.5386 45.9861 1.53702 49.0617 3.43302 50.9576C5.32901 52.8536 8.40461 52.8521 10.3026 50.9541L50.9541 10.3025Z" fill="black"/>
<path d="M44.0944 50.9605C45.9924 52.8584 49.068 52.86 50.964 50.964C52.86 49.068 52.8584 45.9924 50.9604 44.0945L10.3089 3.4429C8.41092 1.54495 5.33532 1.54337 3.43932 3.43936C1.54333 5.33536 1.54491 8.41096 3.44286 10.3089L44.0944 50.9605Z" fill="black"/>
</svg>
