<svg width="54" height="54" viewBox="0 0 54 54" fill="none" xmlns="http://www.w3.org/2000/svg">
<path d="M46.0454 0H7.95462C3.57231 0 0 3.57231 0 7.95462C0 10.0731 0.830769 12.0669 2.32615 13.5831L18.6923 29.9492V48.9946C18.6923 51.7569 20.9354 54 23.6977 54C25.0269 54 26.3146 53.46 27.2492 52.5254L33.48 46.2946C34.6638 45.1108 35.3077 43.5531 35.3077 41.8915V29.9285L51.6738 13.5623C53.1692 12.0669 54 10.0731 54 7.95462C54 3.57231 50.4277 0 46.0454 0ZM48.7246 10.6338L32.3792 27C31.59 27.7892 31.1538 28.8277 31.1538 29.9492V41.9123C31.1538 42.4523 30.9254 42.9923 30.5515 43.3869L24.3208 49.6177C23.8223 50.0954 22.8462 49.68 22.8462 48.9946V29.9492C22.8462 28.8485 22.41 27.7892 21.6208 27.0208L5.27538 10.6338C4.56923 9.92769 4.15385 8.95154 4.15385 7.95462C4.15385 5.85692 5.85692 4.15385 7.95462 4.15385H46.0454C48.1431 4.15385 49.8462 5.85692 49.8462 7.95462C49.8462 8.95154 49.4308 9.92769 48.7246 10.6338Z" fill="#595BD4"/>
</svg>
