<svg width="32" height="32" viewBox="0 0 32 32" fill="none" xmlns="http://www.w3.org/2000/svg">
<g clip-path="url(#clip0_2014_16)">
<path d="M5.25793 22.6909C6.3336 23.4397 8.07761 23.4397 9.15332 22.6909C10.2289 21.942 10.2289 20.7278 9.15332 19.9789C8.07761 19.2301 6.3336 19.2301 5.25793 19.9789C4.18225 20.7278 4.18225 21.942 5.25793 22.6909Z" fill="#25CAAC"/>
<path d="M16.4225 12.5213C18.0361 13.6446 20.652 13.6446 22.2656 12.5213C23.879 11.398 23.879 9.57678 22.2656 8.4535C20.652 7.3302 18.0361 7.3302 16.4225 8.4535C14.809 9.57678 14.809 11.398 16.4225 12.5213Z" fill="#25CAAC"/>
<path d="M10.4957 17.6061C11.8403 18.5421 14.0204 18.5421 15.3649 17.6061C16.7095 16.67 16.7095 15.1523 15.3649 14.2162C14.0204 13.2802 11.8403 13.2802 10.4957 14.2162C9.15116 15.1523 9.15116 16.67 10.4957 17.6061Z" fill="#25CAAC"/>
<path d="M1.84945 16.9281C2.65621 17.4898 3.96421 17.4898 4.77097 16.9281C5.57772 16.3665 5.57772 15.4559 4.77097 14.8942C3.96421 14.3326 2.65621 14.3326 1.84945 14.8942C1.0427 15.4559 1.0427 16.3665 1.84945 16.9281Z" fill="#25CAAC"/>
<path d="M10.4957 6.75858C11.8403 7.69465 14.0204 7.69465 15.3649 6.75858C16.7095 5.8225 16.7095 4.30482 15.3649 3.36875C14.0204 2.43267 11.8403 2.43267 10.4957 3.36875C9.15116 4.30482 9.15116 5.8225 10.4957 6.75858Z" fill="#25CAAC"/>
<path d="M5.25792 11.8433C6.3336 12.5922 8.07761 12.5922 9.15331 11.8433C10.2289 11.0945 10.2289 9.8803 9.15331 9.13147C8.07761 8.38261 6.3336 8.38261 5.25792 9.13147C4.18225 9.8803 4.18226 11.0945 5.25792 11.8433Z" fill="#25CAAC"/>
<path d="M10.4957 28.4535C11.8403 29.3896 14.0204 29.3896 15.3649 28.4535C16.7095 27.5174 16.7095 25.9998 15.3649 25.0637C14.0204 24.1276 11.8403 24.1276 10.4957 25.0637C9.15116 25.9998 9.15116 27.5174 10.4957 28.4535Z" fill="#25CAAC"/>
<path d="M16.4225 23.3687C18.0361 24.4921 20.652 24.4921 22.2656 23.3687C23.879 22.2455 23.879 20.4243 22.2656 19.3009C20.652 18.1777 18.0361 18.1777 16.4225 19.3009C14.809 20.4243 14.809 22.2455 16.4225 23.3687Z" fill="#25CAAC"/>
<path d="M23.5246 17.9451C25.1381 19.0683 27.7541 19.0683 29.3676 17.9451C30.9812 16.8218 30.9812 15.0006 29.3676 13.8773C27.7541 12.754 25.1381 12.754 23.5246 13.8773C21.9111 15.0006 21.9111 16.8218 23.5246 17.9451Z" fill="#25CAAC"/>
</g>
<defs>
<clipPath id="clip0_2014_16">
<rect width="29.3333" height="26.4889" fill="white" transform="translate(1.24438 2.66669)"/>
</clipPath>
</defs>
</svg>
