<svg width="42" height="38" viewBox="0 0 42 38" fill="none" xmlns="http://www.w3.org/2000/svg">
<g clip-path="url(#clip0_2056_20)">
<path d="M6.13454 28.3614C7.63555 29.4084 10.0692 29.4084 11.5702 28.3614C13.0711 27.3145 13.0711 25.6169 11.5702 24.57C10.0692 23.523 7.63555 23.523 6.13454 24.57C4.63354 25.6169 4.63354 27.3145 6.13454 28.3614Z" fill="#25CAAC"/>
<path d="M21.714 14.1436C23.9655 15.714 27.6159 15.714 29.8674 14.1436C32.1189 12.5731 32.1189 10.0269 29.8674 8.45641C27.6159 6.88595 23.9655 6.88595 21.714 8.45641C19.4625 10.0269 19.4625 12.5731 21.714 14.1436Z" fill="#25CAAC"/>
<path d="M13.4433 21.2525C15.3196 22.5612 18.3616 22.5612 20.2378 21.2525C22.1141 19.9438 22.1141 17.8219 20.2378 16.5132C18.3616 15.2045 15.3196 15.2045 13.4433 16.5132C11.5671 17.8219 11.5671 19.9438 13.4433 21.2525Z" fill="#25CAAC"/>
<path d="M1.3785 20.3046C2.50425 21.0899 4.32946 21.0899 5.45521 20.3046C6.58096 19.5194 6.58096 18.2464 5.45521 17.461C4.32946 16.6758 2.50425 16.6758 1.3785 17.461C0.252741 18.2464 0.252742 19.5194 1.3785 20.3046Z" fill="#25CAAC"/>
<path d="M13.4433 6.08678C15.3196 7.3955 18.3616 7.3955 20.2378 6.08678C22.1141 4.77807 22.1141 2.65622 20.2378 1.34751C18.3616 0.0387874 15.3196 0.0387865 13.4433 1.34751C11.5671 2.65622 11.5671 4.77807 13.4433 6.08678Z" fill="#25CAAC"/>
<path d="M6.13454 13.1957C7.63555 14.2427 10.0692 14.2427 11.5702 13.1957C13.0711 12.1488 13.0711 10.4512 11.5702 9.40431C10.0692 8.35734 7.63555 8.35734 6.13454 9.40431C4.63353 10.4512 4.63354 12.1488 6.13454 13.1957Z" fill="#25CAAC"/>
<path d="M13.4433 36.4182C15.3196 37.7269 18.3616 37.7269 20.2378 36.4182C22.1141 35.1095 22.1141 32.9876 20.2378 31.6789C18.3616 30.3702 15.3196 30.3702 13.4433 31.6789C11.5671 32.9876 11.5671 35.1095 13.4433 36.4182Z" fill="#25CAAC"/>
<path d="M21.714 29.3092C23.9655 30.8797 27.6159 30.8797 29.8674 29.3092C32.1189 27.7388 32.1189 25.1926 29.8674 23.6221C27.6159 22.0517 23.9655 22.0517 21.714 23.6221C19.4625 25.1926 19.4625 27.7388 21.714 29.3092Z" fill="#25CAAC"/>
<path d="M31.6241 21.7265C33.8757 23.2969 37.5261 23.2969 39.7776 21.7265C42.0292 20.156 42.0292 17.6098 39.7776 16.0393C37.5261 14.4688 33.8757 14.4688 31.6241 16.0393C29.3727 17.6098 29.3727 20.156 31.6241 21.7265Z" fill="#25CAAC"/>
</g>
<defs>
<clipPath id="clip0_2056_20">
<rect width="40.932" height="37.0337" fill="white" transform="translate(0.53418 0.365967)"/>
</clipPath>
</defs>
</svg>
