<svg width="14" height="14" viewBox="0 0 14 14" fill="none" xmlns="http://www.w3.org/2000/svg">
<path d="M4.95849 9.67517L2.74591 7.46259C2.63589 7.35633 2.48854 7.29753 2.33559 7.29886C2.18264 7.30019 2.03633 7.36154 1.92818 7.46969C1.82002 7.57785 1.75868 7.72415 1.75735 7.8771C1.75602 8.03005 1.81481 8.1774 1.92107 8.28742L4.54607 10.9124C4.65546 11.0218 4.80381 11.0832 4.95849 11.0832C5.11317 11.0832 5.26151 11.0218 5.37091 10.9124L11.7876 4.49575C11.8938 4.38574 11.9526 4.23838 11.9513 4.08544C11.95 3.93249 11.8886 3.78618 11.7805 3.67803C11.6723 3.56987 11.526 3.50852 11.3731 3.50719C11.2201 3.50586 11.0728 3.56466 10.9627 3.67092L4.95849 9.67517Z" fill="white"/>
<path d="M6.70114 11.592L4.48856 9.37937C4.37854 9.27311 4.23119 9.21431 4.07824 9.21564C3.92529 9.21697 3.77899 9.27832 3.67083 9.38647C3.56268 9.49463 3.50133 9.64094 3.5 9.79388C3.49867 9.94683 3.55747 10.0942 3.66373 10.2042L6.28873 12.8292C6.39812 12.9386 6.54646 13 6.70114 13C6.85582 13 7.00417 12.9386 7.11356 12.8292L13.5302 6.41253C13.6365 6.30252 13.6953 6.15516 13.694 6.00222C13.6926 5.84927 13.6313 5.70296 13.5231 5.59481C13.415 5.48665 13.2687 5.4253 13.1157 5.42397C12.9628 5.42264 12.8154 5.48144 12.7054 5.5877L6.70114 11.592Z" fill="white"/>
</svg>
